<?xml version="1.0" encoding="UTF-8"?>
<svg width="1200pt" height="1200pt" version="1.1" viewBox="0 0 1200 1200" xmlns="http://www.w3.org/2000/svg">
 <g>
  <path d="m1135.7 590.44c-61.176-54.672-283.4-324.72-535.71-324.72s-474.54 270.05-535.71 324.72c-5.7227 5.1016-5.7227 14.027 0 19.129 61.176 54.668 272.15 324.72 535.71 324.72s474.54-270.06 535.71-324.73c5.7148-5.0898 5.7148-14.02 0-19.117m-535.71 202.41c-106.51 0-192.85-86.352-192.85-192.85s86.34-192.85 192.85-192.85c106.5 0 192.85 86.352 192.85 192.85s-86.352 192.85-192.85 192.85"/>
  <path d="m600 510c-49.715 0-90 40.297-90 90s40.285 90 90 90c49.703 0 90-40.297 90-90s-40.297-90-90-90"/>
 </g>
</svg>
