<svg width="461.001" height="330.001" xmlns="http://www.w3.org/2000/svg" xml:space="preserve" version="1.1">

 <g>
  <title>Layer 1</title>
  <g id="svg_1">
   <path id="svg_2" fill="#fff" d="m364.257,2.393l-269.513,0c-52.878,0 -95.744,42.866 -95.744,95.744l0,134.728c0,52.878 42.866,95.744 95.744,95.744l269.513,0c52.878,0 95.744,-42.866 95.744,-95.744l0,-134.728c0,-52.878 -42.866,-95.744 -95.744,-95.744zm-64.751,169.663l-126.06,60.123c-3.359,1.602 -7.239,-0.847 -7.239,-4.568l0,-124.004c0,-3.774 3.982,-6.22 7.348,-4.514l126.06,63.881c3.748,1.899 3.683,7.274 -0.109,9.082z"/>
  </g>
 </g>
</svg>