<?xml version="1.0" encoding="UTF-8"?>
<svg width="80px" height="80px" version="1.1" viewBox="0 0 1200 1200" xmlns="http://www.w3.org/2000/svg">
 <defs>
  <clipPath id="b">
   <path d="m419 369h370v458h-370z"/>
  </clipPath>
  <clipPath id="a">
   <path d="m867.18 137.22-729.96 195.59 195.59 729.96 729.96-195.59z"/>
  </clipPath>
 </defs>
 <g clip-path="url(#b)">
  <g clip-path="url(#a)">
   <path d="m784.27 640.02c2.9883 14.57 4.3359 29.809 3.9844 45.227 0.039062 3.8125-0.68359 7.8047-1.0312 11.672-0.54297 3.8984-0.69922 7.7422-1.6445 11.625-2.0039 7.7422-3.3906 15.48-6.7578 22.828-5.3789 15.027-14.703 28.273-24.68 39.531-5.3047 5.3281-10.531 10.68-16.34 14.816-5.5781 4.6328-11.492 8.1602-17.312 11.684-5.8164 3.5195-11.793 6.0859-17.59 8.9375-5.8945 2.25-11.68 4.8125-17.441 6.5703-11.508 3.7266-22.711 6.5352-33.5 8.4062-21.586 3.8945-41.508 5.0625-59.5 5.0781-35.992-0.078125-64.336-4.8477-83.582-9.7266-19.238-5.0469-29.375-10.57-28.766-14.633 0.60547-4.082 11.469-6.3984 30.488-8.5273 18.977-2.2734 46.273-4.082 78.738-9.1836 16.188-2.5742 33.672-5.9766 51.387-11.188 17.566-5.2852 35.836-12.148 50.941-22.547 3.6914-2.6484 7.543-5.1875 10.688-8.2734 3.5859-2.7656 6.2539-6.1562 9.2461-9.3164 5.1875-6.8242 10.039-13.832 12.551-22.297 6.1758-16.266 6.0078-37.066 1.582-59.145l-1.8359-8.2969c-0.55469-2.7461-1.1641-5.5117-2.1055-8.3633-1.75-5.6172-3.1719-11.352-5.0781-16.789-2.0117-5.3828-3.7695-10.863-5.8711-16.09-2.2852-5.1211-4.3086-10.355-6.668-15.312-9.4102-19.879-20.984-37.414-34.113-52.234-13.109-14.844-27.742-26.988-42.828-36.691-15.141-9.6289-30.672-16.812-45.461-22.328-13.098-4.8477-25.496-8.3711-36.91-11.129 1.4922 2.2695 3.0195 4.5898 4.4805 6.8086 11.789 18.352 21.617 35.48 29.051 50.496 14.863 30.031 20.137 51.613 12.289 57.629-7.8438 6.0156-27.32-4.6758-52.465-26.824-12.574-11.074-26.562-25.012-41.227-41.16-3.6211-4.0742-7.3281-8.25-11.113-12.512l-2.8086-3.25c-1.7734-2.1836-3.5508-4.3789-5.3398-6.5859-3.6094-4.4922-7.2578-9.0273-10.934-13.602-14.73-18.426-30.031-37.973-45.297-57.879-0.54297-0.70703-1.0859-1.418-1.6211-2.1133 23.797-7.5273 47.402-14.734 69.891-21.355 5.6016-1.6328 11.152-3.25 16.652-4.8516 2.7305-0.78125 5.4453-1.5625 8.1484-2.3398l3.5352-0.99219 2.0625-0.51953c5.5078-1.3125 10.902-2.5977 16.168-3.8516 21.125-4.7852 40.434-8.1562 56.961-10 33.051-3.6914 54.957-1.2891 57.93 8.0938 2.9766 9.3828-13.543 23.969-42.68 40-7.9648 4.3828-16.945 8.8711-26.652 13.391 3.6602 0.55859 7.3477 1.1523 11.16 1.9062 18.219 3.6719 38.105 9.8047 58.254 19.762 20.078 10.016 40.324 23.953 58.512 41.949 18.219 17.938 34.211 39.859 46.703 64.207 3.1406 6.0781 5.8398 12.379 8.7734 18.668 2.7305 6.3438 5.0156 12.871 7.5312 19.395 2.3984 6.5508 4.207 13.266 6.3164 19.977 1.0898 3.2891 1.9336 6.8398 2.7148 10.461 0.80469 3.5703 1.6094 7.1758 2.4141 10.789z" fill="#fff" fill-rule="evenodd"/>
  </g>
 </g>
</svg>
